<svg xmlns="http://www.w3.org/2000/svg" width="155.77" height="27.652" viewBox="0 0 155.77 27.652">
  <path id="Path_2" data-name="Path 2" d="M84.3,13.826A13.826,13.826,0,1,1,98.127,27.652,13.826,13.826,0,0,1,84.3,13.826Zm3.709,0A10.117,10.117,0,1,0,98.127,3.709,10.117,10.117,0,0,0,88.009,13.826ZM127.251,25.67c-1,0-2.017-.46-2.017-2.311v-2.8h1.7v2.535c0,.822.207,1.2.807,1.2.561,0,.9-.392.9-1.214V20.56h1.7v5.051h-1.515l-.127-.577a1.776,1.776,0,0,1-1.364.638Zm5.894,0a2.352,2.352,0,0,1-2.322-2.594,2.32,2.32,0,0,1,2.3-2.574,1.807,1.807,0,0,1,1.426.617v-2.36h1.7v6.852h-1.5l-.147-.656a1.771,1.771,0,0,1-1.423.715h-.044Zm-.59-2.584c0,.734.384,1.243,1.013,1.243s1-.509,1-1.243-.363-1.243-1-1.243-1.01.509-1.01,1.242Zm6.582,0A2.771,2.771,0,1,1,141.9,25.67a2.506,2.506,0,0,1-2.762-2.585Zm1.732,0c0,.734.374,1.233,1.033,1.233s1.034-.5,1.034-1.233-.374-1.233-1.034-1.233-1.03.5-1.03,1.232ZM118.486,25.67c-1.781,0-2.932-.9-2.932-2.32l1.761.039c.04.519.463.9,1.2.9.551,0,.964-.215.964-.656,0-.421-.413-.509-1.623-.754-1.191-.245-2.145-.607-2.145-2.036,0-1.243,1.043-2.144,2.686-2.144,1.673,0,2.745.842,2.745,2.193h-1.761a.88.88,0,0,0-.984-.8c-.492,0-.865.2-.865.617s.384.5,1.584.734,2.194.578,2.183,1.987c-.009,1.331-1.111,2.241-2.811,2.241h0Zm18.457-.058V20.56h1.712v5.051Zm-13.292,0a1.368,1.368,0,0,1-1.525-1.517V21.959h-.8v-1.4h.8V19.14h1.7v1.42h1.092v1.4h-1.092v1.791c0,.323.138.46.462.46h.629v1.4Zm-89.306-2.2a4.147,4.147,0,0,1,.3-2.5,5.791,5.791,0,0,1,1.034-1.587c.535-.517,1.088-1.034,1.658-1.533a1.078,1.078,0,0,0,.463-.909c-.018-.8,0-1.6,0-2.478a1.417,1.417,0,0,0-.339.285c-.481.624-1.729,2.121-2.6,2.121a.849.849,0,0,1-.856-.874,4.01,4.01,0,0,1,.061-.708A11.961,11.961,0,0,1,31.9,16.578a3.794,3.794,0,0,1-1.461.392,1.462,1.462,0,0,1-1.6-1.355,10.719,10.719,0,0,1-.036-1.28,8.106,8.106,0,0,1-3.868,2.118,2.455,2.455,0,0,0-.785.374.8.8,0,0,1-.446.125.813.813,0,0,1-.7-.428c-.125-.232-.089-.552.285-.57a3.961,3.961,0,0,0,.481-.054.808.808,0,0,0-.053-.731c-.089-.249-.2-.5-.267-.748q-.014-.052-.025-.1c-1.1.872-3.5,2.4-5.8,2.4a5.5,5.5,0,0,1-.945-.089c-1.248-.25-1.96-1.034-1.693-2.264.161-.82,1-2,1.925-2a1.1,1.1,0,0,1,.463.107.99.99,0,0,1,.553,1.319c-.267.82-1.426,1.212-2.175,1.372a.849.849,0,0,0,.7.677,3.625,3.625,0,0,0,1.23.2c2.353,0,4.866-1.943,5.472-2.442a1.816,1.816,0,0,1,.485-.343,1.215,1.215,0,0,1,.459-.4,1.022,1.022,0,0,1,.446-.107.775.775,0,0,1,.766.855.844.844,0,0,1-.071.286.306.306,0,0,1-.285.178.311.311,0,0,1-.25-.124,1.485,1.485,0,0,1-.2-.375.338.338,0,0,0-.339.339,1.168,1.168,0,0,0,.036.428c.161.481.339.962.5,1.444a1.091,1.091,0,0,0,.784-.125,8.637,8.637,0,0,0,3.1-1.978,1.723,1.723,0,0,1,.343-.265.455.455,0,0,1,.406-.288c.214,0,.3.178.267.642a9.7,9.7,0,0,0-.018,1.765.748.748,0,0,0,.874.7,3.078,3.078,0,0,0,1.176-.339,13.764,13.764,0,0,0,2.887-1.96q.084-.062.165-.126a3.46,3.46,0,0,1,.548-.569,1.629,1.629,0,0,1,1.052-.41,1.886,1.886,0,0,1,1.088.392,1.68,1.68,0,0,1,.178.053c.16-.2.3-.41.464-.624a.289.289,0,0,1,.392-.089.381.381,0,0,1,.178.285c.018.357.018.731.018,1.087-.018.766-.035,1.515-.053,2.264v.7a23.546,23.546,0,0,0,4.118-2.835,3.3,3.3,0,0,1,.674-.58.548.548,0,0,1,.36-.453c.161-.036.25.124.286.285.036.214.018.428.036.642A7.773,7.773,0,0,0,44.1,15.21a1.706,1.706,0,0,0,.606-.57c.428-.535,1.319-1.39,2.05-1.39.446,0,.784.321.962.962.107.338.161.713.267,1.052.125.392.3.57.606.57a1.212,1.212,0,0,0,.338-.053,6,6,0,0,0,.927-.392,15.983,15.983,0,0,0,2.317-1.64,3.663,3.663,0,0,1,.553-.357.309.309,0,0,1,.321.054.337.337,0,0,1,0,.321,1.156,1.156,0,0,1-.321.392,9.628,9.628,0,0,1-3.8,2.371,1.28,1.28,0,0,1-1.568-.838,7.922,7.922,0,0,1-.3-1.122c-.089-.392-.214-.571-.41-.571-.374,0-1.212.874-1.444,1.141-.3.321-.553.677-.856,1-.142.161-.463.463-.7.463a.362.362,0,0,1-.338-.338c0-.071-.018-.143-.018-.232,0-.527,0-1.055.006-1.582a42.954,42.954,0,0,1-4.73,3.365c-.036.641-.089,1.319-.125,1.978-.036,1.658-.464,4.349-2.336,4.884a1.9,1.9,0,0,1-.394.043,1.36,1.36,0,0,1-1.37-1.309Zm.784-1.693a3.473,3.473,0,0,0-.053,1.658.688.688,0,0,0,.677.624.949.949,0,0,0,.374-.09,3.051,3.051,0,0,0,.3-.214,2.94,2.94,0,0,0,.963-1.586,19.281,19.281,0,0,0,.374-3.333c.018-.071-.018-.143-.053-.267a6.347,6.347,0,0,0-2.584,3.208Zm-.375-6.061a1.274,1.274,0,0,0,.036.357c.143.018.2.036.232.036.571-.143,1.533-1.319,1.854-1.8.2-.249.018-.57-.321-.642a1.016,1.016,0,0,0-.967.277.927.927,0,0,1-.227.276l-.011.009a3.056,3.056,0,0,0-.6,1.488Zm-17.91-2.516a1.386,1.386,0,0,0-.962,1.23c.41-.09,1.141-.321,1.319-.749a.4.4,0,0,0,.018-.321.256.256,0,0,0-.265-.173A.51.51,0,0,0,16.844,13.142Zm50.694,9.537a2.908,2.908,0,0,1,.2-1.854A11.386,11.386,0,0,1,70.8,16.886a1.157,1.157,0,0,0,.463-.927c.018-.517,0-1.016,0-1.622-.125.16-.214.267-.3.374-.25.321-.481.677-.749.98a1.69,1.69,0,0,1-1.123.642.82.82,0,0,1-.784-.623,4.455,4.455,0,0,1,0-2.727.263.263,0,0,1,.338-.2.419.419,0,0,1,.214.25,2.426,2.426,0,0,1,.018.517c0,.41-.018.82-.018,1.23a.968.968,0,0,0,.3.767,1.4,1.4,0,0,0,.8-.642,20.365,20.365,0,0,0,1.23-1.979c.107-.142.25-.285.428-.2a.468.468,0,0,1,.268.285,5.168,5.168,0,0,1,.142,1.159c.018.428-.018.874-.018,1.319a1.371,1.371,0,0,0,.036.267c.285.071.428-.125.606-.232a14.954,14.954,0,0,1,5.882-2.139c.267-.053.98-.16,1.016.25.036.3-.41.392-.642.428a15.285,15.285,0,0,0-6.4,2.407,1.465,1.465,0,0,0-.7,1.194c-.089.945-.178,1.889-.338,2.816a8.778,8.778,0,0,1-.446,1.622,2.635,2.635,0,0,1-2.1,1.765,1.43,1.43,0,0,1-1.39-1.194Zm3.173-4.742A8.169,8.169,0,0,0,68.2,21.859a1.271,1.271,0,0,0,.161.909.662.662,0,0,0,.57.375.738.738,0,0,0,.357-.107,2.908,2.908,0,0,0,1.3-1.908,16.539,16.539,0,0,0,.446-3.083c.018-.072-.036-.143-.053-.249a1.827,1.827,0,0,0-.268.142Zm67.091,2.25h-.042a.916.916,0,0,1-.912-.92v-.042a.917.917,0,0,1,.954-.878h.042a.916.916,0,0,1,.911.921v.041a.916.916,0,0,1-.918.879H137.8ZM6.113,14.676a25.333,25.333,0,0,1,.143-2.62c.053-.571.071-1.195.161-1.765.053-.375.178-.553.374-.553.143,0,.321.107.339.392.036.392.036.82.036,1.23,0,1.426-.053,2.869-.053,4.3,0,1.319.142,3.369,1.016,3.369.553,0,1.355-.856,1.8-1.461a21.284,21.284,0,0,0,3.779-8.129A9.632,9.632,0,0,0,13.94,7.5c0-3.476-2.032-3.921-3.28-3.921-2.923,0-6.56,2.477-8.877,5.971C1.213,10.383.7,11.31.108,12.113l-.089-.036c0-.089-.018-.178-.018-.286a9.818,9.818,0,0,1,.624-1.8C2.958,5.406,7.361,2.715,10.659,2.715c1.39,0,4.1.606,4.1,4.367a9.328,9.328,0,0,1-.232,2.032A21.1,21.1,0,0,1,9.375,19.185,1.907,1.907,0,0,1,8,19.773c-1.568,0-1.889-2.3-1.889-5.1ZM58.7,19.542c-.053-.214-.071-1.5-.089-2.87,0-1.355.018-2.763.018-3.208,0-.428-.018-1.586.018-2.692a12.381,12.381,0,0,1,.16-2.424.292.292,0,0,1,.286-.214.417.417,0,0,1,.356.25,12.268,12.268,0,0,1,.054,1.5v2.46h.035a.41.41,0,0,0,.2.053A12.83,12.83,0,0,0,65.389,9.83a1.874,1.874,0,0,0,.731-1.319,1.29,1.29,0,0,0-.374-.891c-1.213-1.3-4.278-1.783-7.166-1.783a20.616,20.616,0,0,0-5.133.571,2.1,2.1,0,0,1-.589.124c-.16,0-.285-.053-.285-.232s.267-.356.41-.427a14.08,14.08,0,0,1,5.205-.749c2.121,0,6.292.107,8.2,2A2,2,0,0,1,67,8.508a3.315,3.315,0,0,1-1.8,2.531,18.069,18.069,0,0,1-2.442,1.23l-.214.089.214.053a10.234,10.234,0,0,1,1.978.552c.8.339,1.48.874,1.48,1.676a1.367,1.367,0,0,1-.3.82c-1.461,2-3.992,2-6.221,2-.071,0-.142.018-.232.018v.018h-.018a2.043,2.043,0,0,0-.143.588c-.018.232-.018.5-.036.766-.036.517-.107.909-.356.909-.089,0-.178-.071-.214-.214ZM61,13.054a4.611,4.611,0,0,0-1.444.25l-.018.018v.036a12.6,12.6,0,0,0-.089,1.818,11.077,11.077,0,0,0,.071,1.533v.053h.036c1.319-.018,4.527.071,5.65-1.64a.686.686,0,0,0-.071-.98,6.4,6.4,0,0,0-3.747-1.106,3.634,3.634,0,0,0-.388.019ZM150.426,17.4h1.712a.851.851,0,0,0,.935.636.906.906,0,0,0,1.033-.949v-.529a1.892,1.892,0,0,1-1.446.607,2.314,2.314,0,0,1-2.323-2.525,2.3,2.3,0,0,1,2.3-2.526,1.854,1.854,0,0,1,1.5.715l.128-.636h1.506v4.953c0,1.145-.768,2.114-2.824,2.114-1.476,0-2.489-.656-2.518-1.859Zm1.643-2.741c0,.7.384,1.194,1.013,1.194s1-.49,1-1.194-.364-1.2-1-1.2-1.013.493-1.013,1.2ZM126.989,17.3c-1.092,0-1.908-.5-1.908-1.488,0-1.107.866-1.732,2.489-1.732h.747v-.2c0-.352-.246-.587-.718-.587-.453,0-.758.2-.787.49h-1.633c.088-.979,1.053-1.655,2.469-1.655,1.486,0,2.351.627,2.351,1.851v1.566c0,.254.108.3.315.3h.109v1.39h-.856c-.709,0-.954-.343-.954-.783v-.039a1.779,1.779,0,0,1-1.538.883h-.086Zm-.2-1.615c0,.274.216.451.561.451a.92.92,0,0,0,.964-.989v-.02H127.6c-.512,0-.807.214-.807.557Zm11.8,1.615a2.351,2.351,0,0,1-2.322-2.594,2.321,2.321,0,0,1,2.3-2.575,1.806,1.806,0,0,1,1.426.617V10.389h1.7V17.24h-1.5l-.146-.656a1.769,1.769,0,0,1-1.422.715h-.043ZM138,14.715c0,.733.384,1.243,1.014,1.243h0c.64,0,1-.509,1-1.243s-.364-1.243-1-1.243S138,13.982,138,14.715Zm10.252,2.525V14.627c0-.744-.236-1.145-.837-1.145s-.925.4-.925,1.145V17.24h-1.7V12.19h1.5l.127.607a1.809,1.809,0,0,1,1.515-.666c1.082,0,2.027.558,2.027,2.31v2.8h-1.7Zm-5.865,0V12.19H144.1v5.05Zm-8.205,0V14.627c0-.744-.236-1.145-.836-1.145s-.925.4-.925,1.145V17.24h-1.7V12.19h1.5l.128.607a1.808,1.808,0,0,1,1.514-.666c1.082,0,2.027.558,2.027,2.31v2.8Zm-12.544,0V12.19H123.2l.137.744a1.487,1.487,0,0,1,1.426-.744h.247v1.5h-.64c-.7,0-1.033.382-1.033,1.126V17.24h-1.7Zm-6.08,0V10.389h2.725c1.653,0,2.637.646,2.637,1.811a1.464,1.464,0,0,1-1.417,1.527c1.013.107,1.643.6,1.643,1.566,0,1.194-.984,1.948-2.716,1.948Zm1.81-1.37h1.082c.521,0,.836-.265.836-.7s-.314-.7-.836-.7h-1.082v1.41Zm0-2.751h.945c.5,0,.8-.274.8-.685s-.3-.685-.8-.685h-.945Zm16.49-.989Zm-104.2-.218a.481.481,0,0,1-.143-.589,3.418,3.418,0,0,1,.286-.57.288.288,0,0,1,.267-.053c.089.036.214.16.214.232a1.52,1.52,0,0,1-.143.623.508.508,0,0,1-.447.358H29.66Zm113.584-.1H143.2a.916.916,0,0,1-.912-.92v-.043a.917.917,0,0,1,.954-.877h.042a.916.916,0,0,1,.912.921v.042a.917.917,0,0,1-.918.878h-.036Zm-16.264-6.2v-.3c0-2.094,1.23-3.328,2.962-3.328s2.96,1.233,2.96,3.328v.313c0,2.1-1.23,3.328-2.961,3.328s-2.959-1.224-2.959-3.328Zm1.732-.254v.2c0,1.3.513,1.958,1.23,1.958s1.23-.656,1.23-1.958v-.2c0-1.292-.512-1.957-1.23-1.957s-1.228.674-1.228,1.967ZM121.921,7.9a3.885,3.885,0,0,1-.679-2.359c0-2.369,1.171-3.573,2.962-3.573a2.377,2.377,0,0,1,2.558,2.046h-1.7a.932.932,0,0,0-1-.7c-.718,0-1.141.509-1.141,1.615v.078a1.428,1.428,0,0,1,.108-.127,1.9,1.9,0,0,1,1.455-.626A2.235,2.235,0,0,1,126.836,6.6,2.368,2.368,0,0,1,124.17,8.94,2.711,2.711,0,0,1,121.926,7.9Zm1.291-1.3a.948.948,0,1,0,1.889.01.949.949,0,1,0-1.889-.01Zm-7.655,0h1.722A1.01,1.01,0,0,0,118.4,7.638a.81.81,0,0,0,.9-.812c0-.44-.3-.724-.945-.724h-.738V4.751h.64c.62,0,.934-.3.934-.763,0-.48-.393-.7-.856-.7a.922.922,0,0,0-.984.91h-1.682c.02-1.332,1.121-2.222,2.705-2.222,1.623,0,2.558.725,2.558,1.87a1.5,1.5,0,0,1-1.21,1.478,1.512,1.512,0,0,1,1.338,1.605c0,1.194-1.043,2.016-2.735,2.016s-2.765-.822-2.765-2.35Z" transform="translate(-0.001)" fill="#fff"/>
</svg>
