<svg xmlns="http://www.w3.org/2000/svg" width="300.146" height="1772.451" viewBox="0 0 300.146 1772.451">
  <path id="Path_4" data-name="Path 4" d="M694.576,1712.956,674.021,1692.4a74.317,74.317,0,0,0,21.165-51.1h.01l0-1.054,0-1.054h-.01a74.338,74.338,0,0,0-21.906-51.85l-.745-.745-51.106,51.1v-70.166h73.764v-75.085a74.342,74.342,0,0,0-21.174-51.888l.006-.006-1.49-1.49-.006,0a74.4,74.4,0,0,0-39.661-20.1,74.862,74.862,0,0,0,62.318-72.732l.007-75.873H621.429V1200.2l51.106,51.106.745-.745a74.359,74.359,0,0,0,21.913-52.641V1124.95h1.491l-1.054-1.054,1.053-1.054h-1.49v-1.49l-1.053,1.054-20.121-20.12a74.324,74.324,0,0,0,21.167-51.1h.01l0-1.054,0-1.054h-.01a74.339,74.339,0,0,0-21.906-51.85l-.745-.745-51.106,51.1V977.421h73.764V902.336a74.339,74.339,0,0,0-21.173-51.887l0-.006-1.49-1.49-.006.006a74.818,74.818,0,0,0-126.964,52.589H475.392l51.1-51.106-.745-.745a74.328,74.328,0,0,0-52.9-21.912h-1.054v72.273l-51.1-51.106-.745.745a74.82,74.82,0,0,0,0,105.81l.745.745,52.159-52.159,51.414,51.414,21.3,21.3v2.107l1.053-1.054,20.121,20.121a74.236,74.236,0,0,0-20.121,39.532,74.3,74.3,0,0,0-20.859-40.283l-.745-.745-51.106,51.1V975.312H396.539l73.764,73.764H398.03v1.054a74.894,74.894,0,0,0,57.062,72.71H398.03V1200.2l.04-.042a74.863,74.863,0,0,0,62.153,71.262,74.229,74.229,0,0,0-39.531,20.12L398.03,1268.88v77.363H470.3l-51.106,51.1.746.745A74.307,74.307,0,0,0,471.793,1420v70.172l-51.1-51.1-.745.745a74.819,74.819,0,0,0,0,105.808l.745.745,52.159-52.159,72.71,72.713v2.107l1.053-1.054,20.121,20.12a74.241,74.241,0,0,0-20.121,39.533,74.294,74.294,0,0,0-20.859-40.283l-.745-.745L473.9,1637.7v-72.274H396.539l73.764,73.764H398.03v1.054a74.832,74.832,0,0,0,62.267,73.764,74.833,74.833,0,0,0-62.267,73.765v1.054H470.3l-73.764,73.763H473.9v-72.273l51.106,51.1.745-.745A74.293,74.293,0,0,0,546.61,1800.4a74.231,74.231,0,0,0,20.121,39.532l-20.121,20.12L545.558,1859v2.105l-1.491,1.491h0l-71.22,71.222-52.159-52.157-.745.745a74.817,74.817,0,0,0,0,105.807l.745.745,51.1-51.1v70.173a74.313,74.313,0,0,0-51.85,21.907l-.746.743,51.106,51.107H398.03v77.363l22.663-22.664a74.239,74.239,0,0,0,39.531,20.12,74.863,74.863,0,0,0-62.153,71.26l-.04-.042v77.365h57.06a74.893,74.893,0,0,0-57.06,72.708v1.054H470.3l-73.764,73.764H473.9v-72.274l51.106,51.1.745-.745a74.282,74.282,0,0,0,20.859-40.28,74.227,74.227,0,0,0,20.121,39.529l-20.121,20.122-1.053-1.053v2.105l-1.491,1.491h0l-71.22,71.22-52.159-52.159-.745.745a74.82,74.82,0,0,0,0,105.81l.745.745,51.1-51.106v72.274h1.054a74.329,74.329,0,0,0,52.9-21.913l.745-.745-51.1-51.106h70.173a74.819,74.819,0,0,0,126.964,52.59l.006,0,1.49-1.49-.006-.006a74.328,74.328,0,0,0,21.174-51.886V2450.6H621.429v-70.167l51.106,51.1.745-.745a74.333,74.333,0,0,0,21.906-51.85h.01l0-1.054,0-1.054h-.01a74.318,74.318,0,0,0-21.167-51.1l20.121-20.12,1.053,1.054v-1.49h1.49l-1.053-1.055,1.054-1.054h-1.491V2230.1a74.353,74.353,0,0,0-21.913-52.64l-.745-.745-51.106,51.1v-70.165h73.764v-75.873h-.007a74.86,74.86,0,0,0-62.322-72.733,74.41,74.41,0,0,0,39.666-20.1l.006,0,1.49-1.49,0-.006a74.338,74.338,0,0,0,21.173-51.887v-75.085H621.429v-70.166l51.106,51.1.745-.745a74.337,74.337,0,0,0,21.906-51.85h.01l0-1.054,0-1.054h-.01a74.313,74.313,0,0,0-21.167-51.1l20.557-20.557h2.109l-1.054-1.054,1.054-1.054ZM420.693,953.265a72.711,72.711,0,0,1,0-101.328L471.358,902.6ZM473.9,829.9a72.207,72.207,0,0,1,49.61,20.548l-49.61,49.61Zm71.657,143.925-70.166-70.167h70.166ZM420.693,1543.381a72.711,72.711,0,0,1,0-101.328l50.663,50.663ZM400.136,1124.95H470.3l-35.083,35.083-35.084,35.083Zm71.657,292.942a72.189,72.189,0,0,1-49.609-20.55l49.609-49.61Zm0-73.757H400.136v-70.166l20.553,20.551.745-.745a72.217,72.217,0,0,1,50.36-21.289Zm0-73.772a72.708,72.708,0,0,1-71.648-71.649h71.648Zm0-73.757H401.627l70.166-70.166Zm0-73.772a72.708,72.708,0,0,1-71.648-71.649h71.648Zm0-75.247-70.166-70.166h70.166Zm-51.1,938.38a72.707,72.707,0,0,1,0-101.325l50.665,50.662Zm-20.557,317.1V2232.9l70.167,70.167ZM471.793,2450.6H401.627l70.166-70.166Zm0-73.764H400.145a72.708,72.708,0,0,1,71.648-71.647Zm0-75.253-70.166-70.167h70.166Zm0-72.276H400.145a72.707,72.707,0,0,1,71.648-71.647Zm0-73.771a72.222,72.222,0,0,1-50.36-21.289l-.745-.745-20.553,20.551v-70.166h71.657Zm0-75.247-49.609-49.61a72.2,72.2,0,0,1,49.609-20.548Zm-51.1,495.794a72.71,72.71,0,0,1,0-101.328l50.663,50.663Zm102.818,1.49a72.2,72.2,0,0,1-49.61,20.549v-70.16Zm22.047-53.209H475.392l70.166-70.165ZM672.53,1589.583a72.229,72.229,0,0,1,20.55,49.609h-70.16Zm20.55,51.718a72.219,72.219,0,0,1-20.55,49.609l-49.61-49.609Zm-1.482,71.656H621.429v-70.166Zm-72.275-147.529H549.155l70.167-70.166Zm73.764-72.972v72.972H621.429v-72.273l51.1-51.1A72.244,72.244,0,0,1,693.087,1492.456Zm-21.3-95.853a72.228,72.228,0,0,1-50.361,21.288v-71.648h71.65A72.249,72.249,0,0,1,671.791,1396.6Zm21.3-124.124v71.656H621.429v-71.656Zm0-74.56a72.246,72.246,0,0,1-20.557,50.406l-50.665-50.665-.436-.437v-72.266a72.713,72.713,0,0,1,71.657,72.445v.516Zm-54.955-72.969H691.6l-19.066,19.067A74.293,74.293,0,0,0,638.132,1124.95Zm54.955,54.96a74.337,74.337,0,0,0-19.067-34.4l19.067-19.066ZM672.53,999.468a72.226,72.226,0,0,1,20.55,49.609h-70.16Zm20.55,51.718a72.23,72.23,0,0,1-20.55,49.61l-49.61-49.61Zm-1.482,71.656H621.429v-70.166Zm1.49-220.5v72.972H621.429V903.039l51.1-51.1A72.236,72.236,0,0,1,693.087,902.34Zm-145.422-.083A72.712,72.712,0,0,1,671.04,850.449L547.665,973.824Zm71.657,2.889v70.166H549.155Zm-70.167,72.275h70.167v70.166l-51.1-51.1Zm19.067,22.047,49.609,49.609H547.672A72.2,72.2,0,0,1,568.222,999.468Zm49.609,51.718-49.609,49.61a72.2,72.2,0,0,1-20.55-49.61ZM525,999.468a72.221,72.221,0,0,1,20.548,49.609H475.392Zm20.563,51.718a74.3,74.3,0,0,0,21.907,51.851l.745.745,51.1-51.106v70.173a74.286,74.286,0,0,0-51.1,21.168l0,0-1.49,1.49,0,0a74.228,74.228,0,0,0-20.121,39.529,74.922,74.922,0,0,0-61.14-61.14,74.278,74.278,0,0,0,40.281-20.859l.745-.745-51.1-51.106Zm23.4,242.589a72.212,72.212,0,0,1,50.36-21.289v72.266l-51.1,51.1a72.212,72.212,0,0,1-20.557-50.32v-.69A72.224,72.224,0,0,1,568.962,1293.775Zm-.741-2.23-19.067-19.066h53.463A74.294,74.294,0,0,0,568.222,1291.544Zm-19.067-21.174,70.167-70.166v70.166Zm-1.49-1.49v-71.4A72.218,72.218,0,0,1,568.222,1147l50.663,50.663Zm22.047-123.374a72.2,72.2,0,0,1,49.61-20.55v70.159ZM473.9,1052.675l49.61,49.611a72.194,72.194,0,0,1-49.61,20.548Zm0,72.282a72.713,72.713,0,0,1,71.657,72.444v.518A72.24,72.24,0,0,1,525,1248.324l-51.1-51.1Zm0,75.247,51.106,51.106.745-.745a74.369,74.369,0,0,0,19.806-35.151v54.956h-1.491l1.054,1.054-1.054,1.054h1.491v1.49l1.053-1.054,20.121,20.12a74.279,74.279,0,0,0-21.167,51.1H475.392l51.1-51.1-.745-.745a74.3,74.3,0,0,0-51.851-21.907Zm71.657,146.039v70.166L526.5,1397.348l-51.1-51.1ZM473.9,1272.486a72.189,72.189,0,0,1,49.61,20.55l-49.61,49.609Zm0,75.245,49.61,49.612a72.2,72.2,0,0,1-49.61,20.548Zm0,72.284a72.194,72.194,0,0,1,49.61,20.548l-49.61,49.609Zm71.657,143.923-70.166-70.168h70.166Zm.007-72.276H475.392l51.1-51.1-.745-.745a74.287,74.287,0,0,0-40.281-20.859A74.241,74.241,0,0,0,525,1398.833l22.664,22.664v-58.55a74.35,74.35,0,0,0,19.808,35.145l.745.745,51.1-51.106v70.209a74.758,74.758,0,0,0-73.757,73.721Zm2.1.711a72.712,72.712,0,0,1,123.375-51.81L547.665,1563.938Zm1.49,75.164h70.167V1637.7l-51.1-51.1Zm19.067,22.047,49.609,49.609H547.672A72.2,72.2,0,0,1,568.222,1589.583Zm49.609,51.718-49.609,49.609a72.2,72.2,0,0,1-20.55-49.609ZM525,1589.583a72.224,72.224,0,0,1,20.548,49.609H475.392Zm-51.1,53.207,49.61,49.609a72.2,72.2,0,0,1-49.61,20.55Zm-72.273-75.254h70.166V1637.7Zm-1.482,73.765h71.648v71.648a72.71,72.71,0,0,1-71.648-71.648Zm71.648,219.183H401.627l70.166-70.165Zm0-73.763H400.145a72.713,72.713,0,0,1,71.648-71.65Zm2.107-71.65a72.2,72.2,0,0,1,49.61,20.551l-49.61,49.609ZM525,1838.438l-49.611-49.609H545.55A72.221,72.221,0,0,1,525,1838.438Zm20.563-51.718H475.392l51.1-51.1-.745-.745a74.257,74.257,0,0,0-40.354-20.861,74.261,74.261,0,0,0,40.354-20.86l.745-.745-51.1-51.1h70.173a74.3,74.3,0,0,0,21.907,51.85l.745.745,51.1-51.1v142.441l-51.1-51.1-.745.745A74.3,74.3,0,0,0,545.565,1786.721Zm72.266,0H547.672a72.193,72.193,0,0,1,20.55-49.609Zm-70.159,2.109h70.159l-49.609,49.609A72.2,72.2,0,0,1,547.672,1788.829Zm71.65,1.49v70.165H549.155Zm0,72.273v70.167l-70.169-70.167Zm-73.764,1.491v70.166H475.392Zm.007,72.275a74.758,74.758,0,0,0,73.757,73.721v70.209l-51.1-51.1-.745.745a74.355,74.355,0,0,0-19.808,35.145v-58.55L525,2029.187a74.256,74.256,0,0,0-39.532-20.118,74.265,74.265,0,0,0,40.281-20.86l.745-.745-51.1-51.1ZM619.322,2232.9v70.16a72.2,72.2,0,0,1-49.61-20.55Zm-51.1,48.121a72.218,72.218,0,0,1-20.557-50.485v-71.4l71.22,71.219Zm-19.067-123.374h70.167v70.165Zm0-2.108,19.067-19.065a74.308,74.308,0,0,0,34.4,19.065Zm63.664-.385a72.153,72.153,0,0,1-43.856-20.911l-.082-.082a72.232,72.232,0,0,1-21.216-50.987v-.69a72.218,72.218,0,0,1,20.557-50.32l51.1,51.1v72.266Q616.046,2155.491,612.818,2155.158Zm-67.261-73.379H475.392l70.166-70.166ZM473.9,1937.848l49.61,49.609a72.187,72.187,0,0,1-49.61,20.55Zm0,72.282a72.206,72.206,0,0,1,49.61,20.548l-49.61,49.61Zm0,75.247,49.61,49.609a72.194,72.194,0,0,1-49.61,20.55Zm0,72.274v-.007a74.309,74.309,0,0,0,51.851-21.907l.745-.745-51.1-51.1h70.173a74.277,74.277,0,0,0,21.167,51.1l-20.121,20.122-1.053-1.054v1.49h-1.491l1.054,1.054-1.054,1.054h1.491v54.956a74.358,74.358,0,0,0-19.806-35.151l-.745-.745-51.106,51.1Zm0,73.763v-.619l51.1-51.1a72.235,72.235,0,0,1,20.555,50.406v.516a72.71,72.71,0,0,1-71.657,72.445Zm0,73.773a72.189,72.189,0,0,1,49.61,20.548l-49.61,49.609ZM525,2428.554l-49.611-49.61H545.55A72.22,72.22,0,0,1,525,2428.554Zm20.563-51.719H475.392l51.1-51.1-.745-.745a74.271,74.271,0,0,0-40.281-20.859,74.916,74.916,0,0,0,61.14-61.143,74.224,74.224,0,0,0,20.121,39.532l0,.006,1.49,1.49,0,0a74.291,74.291,0,0,0,51.1,21.167v70.172l-51.1-51.1-.745.745A74.3,74.3,0,0,0,545.565,2376.835Zm72.266,0H547.672a72.2,72.2,0,0,1,20.55-49.609Zm-70.159,2.108h70.159l-49.609,49.61A72.2,72.2,0,0,1,547.672,2378.943Zm71.65,1.49V2450.6H549.155Zm0,72.274v70.166l-70.169-70.166Zm1.054,145.42a72.713,72.713,0,0,1-72.712-72.365V2454.2L671.04,2577.571A72.219,72.219,0,0,1,620.376,2598.128Zm72.71-145.419v72.968a72.237,72.237,0,0,1-20.557,50.4l-51.1-51.1v-72.272Zm-20.557-24.155-49.61-49.61h70.16A72.22,72.22,0,0,1,672.53,2428.554Zm20.55-51.719h-70.16l49.61-49.609A72.221,72.221,0,0,1,693.079,2376.835Zm-71.65-1.49v-70.164H691.6Zm16.7-72.273a74.308,74.308,0,0,0,34.4-19.065l19.066,19.065Zm35.887-20.557a74.335,74.335,0,0,0,19.067-34.4v53.472ZM672.53,2179.7a72.24,72.24,0,0,1,20.557,50.406v.515a72.71,72.71,0,0,1-71.657,72.447V2230.8Zm20.557-24.154H621.429v-71.656h71.657Zm-21.3-124.126a72.256,72.256,0,0,1,21.289,50.362h-71.65V2010.13A72.227,72.227,0,0,1,671.791,2031.417Zm-102.828-44.7a72.228,72.228,0,0,1-21.3-51.069v-71.565L671.04,1987.457A72.8,72.8,0,0,1,568.962,1986.718Zm124.124-124.124v72.968a72.241,72.241,0,0,1-20.557,50.406l-51.1-51.1v-72.273Zm-20.557-24.156-49.61-49.609h70.16A72.223,72.223,0,0,1,672.53,1838.438Zm20.55-51.718h-70.16l49.61-49.609A72.218,72.218,0,0,1,693.079,1786.721Zm-71.65-1.49v-70.166H691.6Z" transform="translate(-396.539 -827.785)" opacity="0.08"/>
</svg>
