<svg xmlns="http://www.w3.org/2000/svg" width="1921.631" height="5762.886" viewBox="0 0 1921.631 5762.886">
  <path id="Union_1" data-name="Union 1" d="M-12959.873,5595.924a961.192,961.192,0,0,1-95.349-14.549c-30.942-6.334-61.905-14.292-92.032-23.665-29.795-9.265-59.478-20.13-88.228-32.292-28.486-12.051-56.729-25.656-83.946-40.437-27.022-14.68-53.66-30.866-79.177-48.1-25.4-17.161-50.271-35.757-73.929-55.287-23.6-19.478-46.549-40.329-68.2-61.975s-42.5-44.6-61.978-68.2c-19.526-23.661-38.127-48.53-55.283-73.929-17.237-25.513-33.423-52.151-48.1-79.177-14.784-27.217-28.389-55.457-40.437-83.943-12.161-28.757-23.026-58.443-32.295-88.231-9.373-30.134-17.33-61.1-23.661-92.032a962.572,962.572,0,0,1-14.556-95.352,976.116,976.116,0,0,1-4.957-98.187,976.029,976.029,0,0,1,4.957-98.189,962.35,962.35,0,0,1,14.556-95.349c6.327-30.936,14.288-61.9,23.661-92.033,9.269-29.794,20.134-59.48,32.295-88.227,12.048-28.49,25.652-56.733,40.437-83.946,14.681-27.026,30.866-53.667,48.1-79.18,17.153-25.385,35.753-50.264,55.283-73.929,19.474-23.6,40.329-46.542,61.978-68.191s44.6-42.5,68.2-61.982c23.657-19.526,48.529-38.123,73.929-55.283,25.517-17.237,52.154-33.419,79.177-48.1,27.21-14.781,55.453-28.389,83.946-40.444,28.75-12.162,58.433-23.023,88.228-32.288,30.123-9.376,61.086-17.331,92.032-23.665a961.129,961.129,0,0,1,95.349-14.552,976.3,976.3,0,0,1,98.187-4.96,975.8,975.8,0,0,1-98.187-4.957c-31.924-3.243-64-8.141-95.349-14.548-30.946-6.338-61.909-14.3-92.032-23.668-29.795-9.269-59.478-20.13-88.228-32.292-28.486-12.047-56.729-25.652-83.946-40.44-27.022-14.68-53.66-30.859-79.177-48.1-25.4-17.157-50.271-35.757-73.929-55.283-23.6-19.481-46.549-40.333-68.2-61.982s-42.5-44.6-61.978-68.2c-19.526-23.658-38.127-48.529-55.283-73.925-17.237-25.513-33.42-52.151-48.1-79.177-14.784-27.213-28.389-55.46-40.437-83.947-12.161-28.753-23.026-58.44-32.295-88.23-9.373-30.131-17.33-61.094-23.661-92.029a962.719,962.719,0,0,1-14.556-95.352,976.2,976.2,0,0,1-4.957-98.183,976.22,976.22,0,0,1,4.957-98.186,963.59,963.59,0,0,1,14.556-95.352c6.331-30.932,14.292-61.9,23.665-92.029,9.265-29.791,20.13-59.477,32.291-88.23,12.048-28.486,25.652-56.73,40.437-83.943,14.684-27.03,30.866-53.667,48.1-79.18,17.156-25.4,35.757-50.267,55.283-73.925,19.474-23.6,40.329-46.545,61.978-68.2s44.6-42.5,68.2-61.978c23.657-19.526,48.533-38.13,73.929-55.287,25.517-17.24,52.154-33.419,79.177-48.1,27.217-14.784,55.46-28.389,83.946-40.437,28.75-12.165,58.433-23.026,88.228-32.3,30.123-9.369,61.086-17.33,92.032-23.665a964.188,964.188,0,0,1,95.349-14.552,975.8,975.8,0,0,1,98.187-4.957,976.264,976.264,0,0,1-98.187-4.96,962.161,962.161,0,0,1-95.349-14.548c-30.946-6.334-61.909-14.292-92.032-23.665-29.795-9.269-59.478-20.13-88.228-32.292-28.493-12.054-56.736-25.663-83.946-40.44-27.022-14.684-53.66-30.863-79.177-48.1-25.4-17.161-50.271-35.754-73.929-55.28-23.6-19.481-46.545-40.333-68.2-61.982s-42.5-44.6-61.978-68.194c-19.53-23.665-38.13-48.54-55.283-73.928-17.237-25.513-33.42-52.154-48.1-79.18-14.784-27.213-28.389-55.457-40.437-83.943-12.161-28.75-23.026-58.437-32.291-88.231-9.377-30.134-17.334-61.1-23.665-92.032a963.136,963.136,0,0,1-14.556-95.345,976.151,976.151,0,0,1-4.957-98.193,976.168,976.168,0,0,1,4.957-98.186,963.43,963.43,0,0,1,14.556-95.352c6.331-30.932,14.292-61.895,23.665-92.032,9.265-29.787,20.13-59.47,32.291-88.227,12.048-28.49,25.652-56.73,40.437-83.943,14.684-27.026,30.866-53.663,48.1-79.18,17.156-25.4,35.757-50.267,55.283-73.928,19.474-23.6,40.329-46.538,61.978-68.2s44.6-42.5,68.2-61.975C-13448.876,38.761-13424,20.165-13398.6,3c25.517-17.237,52.154-33.423,79.177-48.1,27.217-14.781,55.46-28.386,83.946-40.433,28.75-12.165,58.433-23.03,88.228-32.3,30.127-9.373,61.09-17.33,92.032-23.661a961.133,961.133,0,0,1,95.349-14.552,975.191,975.191,0,0,1,98.189-4.96,975.133,975.133,0,0,1,98.187,4.96,961.322,961.322,0,0,1,95.352,14.552c30.939,6.331,61.906,14.288,92.029,23.661,29.794,9.265,59.48,20.13,88.23,32.3,28.486,12.047,56.73,25.652,83.946,40.433,27.02,14.68,53.657,30.862,79.178,48.1,25.4,17.16,50.267,35.757,73.928,55.287,23.6,19.478,46.546,40.329,68.194,61.975s42.508,44.6,61.982,68.2c19.525,23.661,38.122,48.533,55.283,73.928,17.236,25.517,33.422,52.158,48.1,79.18,14.784,27.213,28.39,55.453,40.44,83.943,12.162,28.757,23.026,58.44,32.292,88.227,9.369,30.131,17.334,61.094,23.664,92.032a963.288,963.288,0,0,1,14.552,95.352,975.88,975.88,0,0,1,4.957,98.186h0l-960.313,0a971.436,971.436,0,0,0,4.968,98.047,959.306,959.306,0,0,0,14.576,95.241c6.345,30.914,14.315,61.85,23.7,91.963,9.279,29.777,20.161,59.442,32.341,88.185a961.343,961.343,0,0,0,88.644,163.109,969.7,969.7,0,0,0,117.354,142.178,969.8,969.8,0,0,0,142.182,117.355,961.573,961.573,0,0,0,163.106,88.65c28.743,12.176,58.416,23.054,88.186,32.333,30.113,9.39,61.052,17.362,91.96,23.7a958.576,958.576,0,0,0,95.248,14.576,970.479,970.479,0,0,0,98.047,4.971v957.462h0c-1.523-527.948-432.314-957.462-960.311-957.462V3680.254c528,0,958.787-429.515,960.311-957.459h0v957.459a970.515,970.515,0,0,0-98.047,4.971,958.647,958.647,0,0,0-95.248,14.576c-30.908,6.341-61.847,14.313-91.96,23.7-29.77,9.283-59.442,20.158-88.186,32.337a961.687,961.687,0,0,0-163.106,88.647,969.809,969.809,0,0,0-142.182,117.355,969.7,969.7,0,0,0-117.354,142.178,961.645,961.645,0,0,0-88.647,163.109c-12.176,28.743-23.058,58.412-32.337,88.186-9.387,30.113-17.357,61.052-23.7,91.963a959.312,959.312,0,0,0-14.576,95.241,971.506,971.506,0,0,0-4.968,98.051h960.313a975.828,975.828,0,0,1-4.957,98.187,963.291,963.291,0,0,1-14.552,95.352c-6.33,30.942-14.292,61.905-23.664,92.032-9.266,29.788-20.13,59.474-32.292,88.231-12.051,28.486-25.656,56.726-40.44,83.943-14.677,27.019-30.862,53.66-48.1,79.177-17.161,25.4-35.758,50.268-55.283,73.929-19.475,23.6-40.329,46.538-61.982,68.2s-44.592,42.5-68.194,61.975c-23.661,19.53-48.532,38.126-73.928,55.287-25.521,17.24-52.158,33.422-79.178,48.1-27.216,14.781-55.46,28.386-83.946,40.437-28.75,12.162-58.437,23.026-88.23,32.292-30.123,9.373-61.09,17.331-92.029,23.665a961.381,961.381,0,0,1-95.352,14.549,974.115,974.115,0,0,1-98.187,4.96A974.173,974.173,0,0,1-12959.873,5595.924Zm98.189-1915.67v0Zm960.313,960.317h0Z" transform="translate(13822.501 161.5)" fill="none" stroke="#dedede" stroke-width="1"/>
</svg>
